<svg width="16" height="17" viewBox="0 0 16 17" fill="none" xmlns="http://www.w3.org/2000/svg">
<path d="M7.175 15.9748L0.225 9.0248C0.141667 8.94147 0.0833335 8.85814 0.0500002 8.7748C0.0166669 8.69147 0 8.5998 0 8.4998C0 8.3998 0.0166669 8.30814 0.0500002 8.2248C0.0833335 8.14147 0.141667 8.05814 0.225 7.9748L7.2 0.999804C7.33333 0.866471 7.5 0.799805 7.7 0.799805C7.9 0.799805 8.075 0.874805 8.225 1.0248C8.375 1.1748 8.45 1.3498 8.45 1.5498C8.45 1.7498 8.375 1.9248 8.225 2.0748L2.55 7.7498H14.95C15.1667 7.7498 15.3458 7.82064 15.4875 7.9623C15.6292 8.10397 15.7 8.28314 15.7 8.4998C15.7 8.71647 15.6292 8.89564 15.4875 9.0373C15.3458 9.17897 15.1667 9.2498 14.95 9.2498H2.55L8.25 14.9498C8.38333 15.0831 8.45 15.2498 8.45 15.4498C8.45 15.6498 8.375 15.8248 8.225 15.9748C8.075 16.1248 7.9 16.1998 7.7 16.1998C7.5 16.1998 7.325 16.1248 7.175 15.9748Z" fill="black"/>
</svg>
