<svg width="21" height="20" viewBox="0 0 21 20" fill="none" xmlns="http://www.w3.org/2000/svg">
<path d="M4.5 6H14.5V4H4.5V6ZM4.5 10H9.25C9.58333 9.6 9.946 9.229 10.338 8.887C10.7293 8.54567 11.1583 8.25 11.625 8H4.5V10ZM4.5 14H7.55C7.58333 13.65 7.646 13.3083 7.738 12.975C7.82933 12.6417 7.94167 12.3167 8.075 12H4.5V14ZM2.5 18C1.95 18 1.479 17.8043 1.087 17.413C0.695667 17.021 0.5 16.55 0.5 16V2C0.5 1.45 0.695667 0.979 1.087 0.587C1.479 0.195667 1.95 0 2.5 0H16.5C17.05 0 17.521 0.195667 17.913 0.587C18.3043 0.979 18.5 1.45 18.5 2V7.575C18.1833 7.44167 17.8583 7.32933 17.525 7.238C17.1917 7.146 16.85 7.08333 16.5 7.05V2H2.5V16H7.55C7.58333 16.35 7.646 16.6917 7.738 17.025C7.82933 17.3583 7.94167 17.6833 8.075 18H2.5ZM15.5 20C14.2833 20 13.2207 19.621 12.312 18.863C11.404 18.1043 10.8333 17.15 10.6 16H12.15C12.3667 16.7333 12.7793 17.3333 13.388 17.8C13.996 18.2667 14.7 18.5 15.5 18.5C16.4667 18.5 17.2917 18.1583 17.975 17.475C18.6583 16.7917 19 15.9667 19 15C19 14.0333 18.6583 13.2083 17.975 12.525C17.2917 11.8417 16.4667 11.5 15.5 11.5C15.0167 11.5 14.5667 11.5873 14.15 11.762C13.7333 11.9373 13.3667 12.1833 13.05 12.5H14.5V14H10.5V10H12V11.425C12.45 10.9917 12.975 10.6457 13.575 10.387C14.175 10.129 14.8167 10 15.5 10C16.8833 10 18.0627 10.4873 19.038 11.462C20.0127 12.4373 20.5 13.6167 20.5 15C20.5 16.3833 20.0127 17.5627 19.038 18.538C18.0627 19.5127 16.8833 20 15.5 20Z" fill="#6D48FF"/>
</svg>
