<svg width="38" height="38" viewBox="0 0 38 38" fill="none" xmlns="http://www.w3.org/2000/svg">
<g clip-path="url(#clip0_246_1212)">
<path d="M18.9364 0C10.6678 0 3.60777 5.46 1 13H37C34.3286 5.46 27.2685 0 18.9364 0Z" fill="#FF9933"/>
<path d="M18.9681 38C27.315 38 34.3876 32.605 37 25H1C3.61239 32.605 10.685 38 18.9681 38Z" fill="#83BF4F"/>
<path d="M1.07667 13C0.38 14.86 0 16.9 0 19C0 21.1 0.38 23.14 1.07667 25H36.9233C37.62 23.14 38 21.1 38 19C38 16.9 37.62 14.86 36.9233 13H1.07667Z" fill="white"/>
<path d="M19 24C21.7614 24 24 21.7614 24 19C24 16.2386 21.7614 14 19 14C16.2386 14 14 16.2386 14 19C14 21.7614 16.2386 24 19 24Z" fill="#428BC1"/>
<path d="M19 23C21.2091 23 23 21.2091 23 19C23 16.7909 21.2091 15 19 15C16.7909 15 15 16.7909 15 19C15 21.2091 16.7909 23 19 23Z" fill="white"/>
<path d="M17.2903 15.1997C17.4652 15.1997 17.607 15.058 17.607 14.8831C17.607 14.7082 17.4652 14.5664 17.2903 14.5664C17.1154 14.5664 16.9736 14.7082 16.9736 14.8831C16.9736 15.058 17.1154 15.1997 17.2903 15.1997Z" fill="#428BC1"/>
<path d="M16.2766 15.7701C16.4515 15.7701 16.5933 15.6283 16.5933 15.4534C16.5933 15.2785 16.4515 15.1367 16.2766 15.1367C16.1017 15.1367 15.96 15.2785 15.96 15.4534C15.96 15.6283 16.1017 15.7701 16.2766 15.7701Z" fill="#428BC1"/>
<path d="M15.4534 16.5933C15.6283 16.5933 15.7701 16.4515 15.7701 16.2766C15.7701 16.1017 15.6283 15.96 15.4534 15.96C15.2785 15.96 15.1367 16.1017 15.1367 16.2766C15.1367 16.4515 15.2785 16.5933 15.4534 16.5933Z" fill="#428BC1"/>
<path d="M14.8831 17.606C15.058 17.606 15.1997 17.4642 15.1997 17.2893C15.1997 17.1144 15.058 16.9727 14.8831 16.9727C14.7082 16.9727 14.5664 17.1144 14.5664 17.2893C14.5664 17.4642 14.7082 17.606 14.8831 17.606Z" fill="#428BC1"/>
<path d="M14.5667 18.7466C14.7416 18.7466 14.8833 18.6048 14.8833 18.4299C14.8833 18.2551 14.7416 18.1133 14.5667 18.1133C14.3918 18.1133 14.25 18.2551 14.25 18.4299C14.25 18.6048 14.3918 18.7466 14.5667 18.7466Z" fill="#428BC1"/>
<path d="M14.5667 19.8863C14.7416 19.8863 14.8833 19.7445 14.8833 19.5696C14.8833 19.3947 14.7416 19.2529 14.5667 19.2529C14.3918 19.2529 14.25 19.3947 14.25 19.5696C14.25 19.7445 14.3918 19.8863 14.5667 19.8863Z" fill="#428BC1"/>
<path d="M14.8831 21.0259C15.058 21.0259 15.1997 20.8841 15.1997 20.7092C15.1997 20.5344 15.058 20.3926 14.8831 20.3926C14.7082 20.3926 14.5664 20.5344 14.5664 20.7092C14.5664 20.8841 14.7082 21.0259 14.8831 21.0259Z" fill="#428BC1"/>
<path d="M15.4534 22.0396C15.6283 22.0396 15.7701 21.8978 15.7701 21.7229C15.7701 21.548 15.6283 21.4062 15.4534 21.4062C15.2785 21.4062 15.1367 21.548 15.1367 21.7229C15.1367 21.8978 15.2785 22.0396 15.4534 22.0396Z" fill="#428BC1"/>
<path d="M16.2766 22.8628C16.4515 22.8628 16.5933 22.721 16.5933 22.5462C16.5933 22.3713 16.4515 22.2295 16.2766 22.2295C16.1017 22.2295 15.96 22.3713 15.96 22.5462C15.96 22.721 16.1017 22.8628 16.2766 22.8628Z" fill="#428BC1"/>
<path d="M17.2903 23.4331C17.4652 23.4331 17.607 23.2914 17.607 23.1165C17.607 22.9416 17.4652 22.7998 17.2903 22.7998C17.1154 22.7998 16.9736 22.9416 16.9736 23.1165C16.9736 23.2914 17.1154 23.4331 17.2903 23.4331Z" fill="#428BC1"/>
<path d="M18.3665 23.6861C18.5414 23.6861 18.6831 23.5443 18.6831 23.3694C18.6831 23.1945 18.5414 23.0527 18.3665 23.0527C18.1916 23.0527 18.0498 23.1945 18.0498 23.3694C18.0498 23.5443 18.1916 23.6861 18.3665 23.6861Z" fill="#428BC1"/>
<path d="M19.2529 23.4327C19.2529 23.2427 19.3796 23.1161 19.5063 23.0527C19.6963 23.0527 19.8229 23.1794 19.8863 23.3061C19.8863 23.4961 19.7596 23.6227 19.6329 23.6861C19.3796 23.7494 19.2529 23.6227 19.2529 23.4327Z" fill="#428BC1"/>
<path d="M20.6467 23.4331C20.8216 23.4331 20.9634 23.2914 20.9634 23.1165C20.9634 22.9416 20.8216 22.7998 20.6467 22.7998C20.4719 22.7998 20.3301 22.9416 20.3301 23.1165C20.3301 23.2914 20.4719 23.4331 20.6467 23.4331Z" fill="#428BC1"/>
<path d="M21.6604 22.8628C21.8353 22.8628 21.9771 22.721 21.9771 22.5462C21.9771 22.3713 21.8353 22.2295 21.6604 22.2295C21.4855 22.2295 21.3438 22.3713 21.3438 22.5462C21.3438 22.721 21.4855 22.8628 21.6604 22.8628Z" fill="#428BC1"/>
<path d="M22.4837 22.0396C22.6585 22.0396 22.8003 21.8978 22.8003 21.7229C22.8003 21.548 22.6585 21.4062 22.4837 21.4062C22.3088 21.4062 22.167 21.548 22.167 21.7229C22.167 21.8978 22.3088 22.0396 22.4837 22.0396Z" fill="#428BC1"/>
<path d="M23.053 21.0259C23.2279 21.0259 23.3697 20.8841 23.3697 20.7092C23.3697 20.5344 23.2279 20.3926 23.053 20.3926C22.8781 20.3926 22.7363 20.5344 22.7363 20.7092C22.7363 20.8841 22.8781 21.0259 23.053 21.0259Z" fill="#428BC1"/>
<path d="M23.3704 19.8863C23.5453 19.8863 23.687 19.7445 23.687 19.5696C23.687 19.3947 23.5453 19.2529 23.3704 19.2529C23.1955 19.2529 23.0537 19.3947 23.0537 19.5696C23.0537 19.7445 23.1955 19.8863 23.3704 19.8863Z" fill="#428BC1"/>
<path d="M23.37 18.7466C23.18 18.7466 23.0533 18.6199 22.99 18.4933C22.99 18.3033 23.1167 18.1766 23.2433 18.1133C23.4333 18.1133 23.56 18.2399 23.6233 18.3666C23.6867 18.5566 23.56 18.6833 23.37 18.7466Z" fill="#428BC1"/>
<path d="M23.053 17.606C23.2279 17.606 23.3697 17.4642 23.3697 17.2893C23.3697 17.1144 23.2279 16.9727 23.053 16.9727C22.8781 16.9727 22.7363 17.1144 22.7363 17.2893C22.7363 17.4642 22.8781 17.606 23.053 17.606Z" fill="#428BC1"/>
<path d="M22.4837 16.5933C22.6585 16.5933 22.8003 16.4515 22.8003 16.2766C22.8003 16.1017 22.6585 15.96 22.4837 15.96C22.3088 15.96 22.167 16.1017 22.167 16.2766C22.167 16.4515 22.3088 16.5933 22.4837 16.5933Z" fill="#428BC1"/>
<path d="M21.6604 15.7701C21.8353 15.7701 21.9771 15.6283 21.9771 15.4534C21.9771 15.2785 21.8353 15.1367 21.6604 15.1367C21.4855 15.1367 21.3438 15.2785 21.3438 15.4534C21.3438 15.6283 21.4855 15.7701 21.6604 15.7701Z" fill="#428BC1"/>
<path d="M20.9634 15.0099C20.9 15.1999 20.71 15.2632 20.52 15.1999C20.33 15.1365 20.2667 14.9465 20.33 14.7565C20.3934 14.5665 20.5834 14.5032 20.7734 14.5665C20.9634 14.6932 21.0267 14.8832 20.9634 15.0099ZM19.8234 14.6299C19.8234 14.8199 19.6334 14.9465 19.4434 14.8832C19.2534 14.8832 19.1267 14.6932 19.19 14.5032C19.19 14.3132 19.38 14.1865 19.57 14.2499C19.76 14.3132 19.8867 14.5032 19.8234 14.6299ZM18.6834 14.5665C18.6834 14.7565 18.5567 14.8832 18.43 14.9465C18.24 14.9465 18.1134 14.8199 18.05 14.6932C18.05 14.5032 18.1767 14.3765 18.3034 14.3132C18.4934 14.2499 18.6834 14.3765 18.6834 14.5665Z" fill="#428BC1"/>
<path d="M18.9363 19.9498C19.461 19.9498 19.8863 19.5245 19.8863 18.9998C19.8863 18.4751 19.461 18.0498 18.9363 18.0498C18.4117 18.0498 17.9863 18.4751 17.9863 18.9998C17.9863 19.5245 18.4117 19.9498 18.9363 19.9498Z" fill="#428BC1"/>
<path d="M18.9366 14.5664L18.81 17.2897L18.9366 18.9997L19.1266 17.2897L18.9366 14.5664ZM17.7966 14.6931L18.3666 17.4164L18.9366 18.9997L18.6833 17.2897L17.7966 14.6931Z" fill="#428BC1"/>
<path d="M16.7197 15.1367L17.9863 17.6067L18.9363 19.0001L18.2397 17.4167L16.7197 15.1367ZM15.833 15.8334L17.6697 17.9234L18.9363 19.0001L17.8597 17.6701L15.833 15.8334Z" fill="#428BC1"/>
<path d="M15.1367 16.7832L17.4167 18.3032L18.9367 18.9999L17.5434 17.9865L15.1367 16.7832Z" fill="#428BC1"/>
<path d="M14.6929 17.8594L17.2896 18.6827L18.9363 18.9994L17.3529 18.4294L14.6929 17.8594ZM14.5029 18.9994L17.2896 19.126L18.9363 18.9994L17.2896 18.8727L14.5029 18.9994Z" fill="#428BC1"/>
<path d="M14.6934 20.14L17.3534 19.57L18.9367 19L17.29 19.3167L14.6934 20.14ZM15.1367 21.2167L17.5434 20.0133L18.9367 19L17.4167 19.6967L15.1367 21.2167Z" fill="#428BC1"/>
<path d="M15.833 22.1033L17.8597 20.33L18.9363 19L17.6697 20.0767L15.833 22.1033ZM16.7197 22.8633L18.2397 20.52L18.9363 19L17.9863 20.3933L16.7197 22.8633Z" fill="#428BC1"/>
<path d="M17.7969 23.3067L18.6835 20.71L18.9369 19L18.3669 20.5833L17.7969 23.3067ZM18.9369 23.4333L19.1269 20.71L18.9369 19L18.8102 20.71L18.9369 23.4333ZM20.0769 23.3067L19.5702 20.5833L18.9369 19L19.2535 20.71L20.0769 23.3067Z" fill="#428BC1"/>
<path d="M21.1532 22.8633L19.9499 20.3933L18.9365 19L19.6965 20.5833L21.1532 22.8633ZM22.1032 22.1033L20.2665 20.0767L18.9365 19L20.0765 20.33L22.1032 22.1033Z" fill="#428BC1"/>
<path d="M22.7999 21.216L20.5199 19.696L18.9365 18.9994L20.3299 20.0127L22.7999 21.216ZM23.2432 20.1394L20.6465 19.316L18.9365 18.9994L20.5832 19.5694L23.2432 20.1394ZM23.3699 18.9994L20.6465 18.8094L18.9365 18.9994L20.6465 19.126L23.3699 18.9994ZM23.2432 17.8594L20.5832 18.4294L18.9365 18.9994L20.6465 18.6827L23.2432 17.8594Z" fill="#428BC1"/>
<path d="M22.8001 16.7832L20.3301 17.9865L18.9368 18.9998L20.5201 18.3032L22.8001 16.7832ZM22.1034 15.8965L20.0768 17.6698L18.9368 18.9998L20.2668 17.9232L22.1034 15.8965Z" fill="#428BC1"/>
<path d="M21.1532 15.1367L19.6965 17.4801L18.9365 19.0001L19.9499 17.6067L21.1532 15.1367Z" fill="#428BC1"/>
<path d="M20.1399 14.6934L19.2532 17.29L18.9365 19L19.5699 17.4167L20.1399 14.6934Z" fill="#428BC1"/>
</g>
<rect x="1" y="1" width="36" height="36" rx="18" stroke="white" stroke-width="2"/>
<defs>
<clipPath id="clip0_246_1212">
<rect width="38" height="38" rx="19" fill="white"/>
</clipPath>
</defs>
</svg>
