<svg width="18" height="18" viewBox="0 0 18 18" fill="none" xmlns="http://www.w3.org/2000/svg">
<mask id="mask0_341_1738" style="mask-type:alpha" maskUnits="userSpaceOnUse" x="0" y="0" width="18" height="18">
<rect width="18" height="18" fill="#D9D9D9"/>
</mask>
<g mask="url(#mask0_341_1738)">
<path d="M8.43726 12.5625H9.56226V8.25H8.43726V12.5625ZM8.99976 6.975C9.17476 6.975 9.31851 6.9155 9.43101 6.7965C9.54351 6.678 9.59976 6.53125 9.59976 6.35625C9.59976 6.19375 9.54351 6.053 9.43101 5.934C9.31851 5.8155 9.17476 5.75625 8.99976 5.75625C8.82476 5.75625 8.68101 5.8155 8.56851 5.934C8.45601 6.053 8.39976 6.19375 8.39976 6.35625C8.39976 6.53125 8.45601 6.678 8.56851 6.7965C8.68101 6.9155 8.82476 6.975 8.99976 6.975ZM8.99976 16.125C8.01226 16.125 7.08426 15.9375 6.21576 15.5625C5.34676 15.1875 4.59351 14.6813 3.95601 14.0438C3.31851 13.4063 2.81226 12.653 2.43726 11.784C2.06226 10.9155 1.87476 9.9875 1.87476 9C1.87476 8.0125 2.06226 7.08425 2.43726 6.21525C2.81226 5.34675 3.31851 4.59375 3.95601 3.95625C4.59351 3.31875 5.34676 2.8125 6.21576 2.4375C7.08426 2.0625 8.01226 1.875 8.99976 1.875C9.98726 1.875 10.9155 2.0625 11.7845 2.4375C12.653 2.8125 13.406 3.31875 14.0435 3.95625C14.681 4.59375 15.1873 5.34675 15.5623 6.21525C15.9373 7.08425 16.1248 8.0125 16.1248 9C16.1248 9.9875 15.9373 10.9155 15.5623 11.784C15.1873 12.653 14.681 13.4063 14.0435 14.0438C13.406 14.6813 12.653 15.1875 11.7845 15.5625C10.9155 15.9375 9.98726 16.125 8.99976 16.125ZM8.99976 15C10.6748 15 12.0935 14.4188 13.256 13.2563C14.4185 12.0938 14.9998 10.675 14.9998 9C14.9998 7.325 14.4185 5.90625 13.256 4.74375C12.0935 3.58125 10.6748 3 8.99976 3C7.32476 3 5.90601 3.58125 4.74351 4.74375C3.58101 5.90625 2.99976 7.325 2.99976 9C2.99976 10.675 3.58101 12.0938 4.74351 13.2563C5.90601 14.4188 7.32476 15 8.99976 15Z" fill="#1C1B1F"/>
</g>
</svg>
