<svg width="14" height="14" viewBox="0 0 14 14" fill="none" xmlns="http://www.w3.org/2000/svg">
<path d="M11 0.333984C10.4 0.333984 9.66671 1.00065 9.66671 1.66732H4.33337C4.33337 1.00065 3.60004 0.333984 3.00004 0.333984H0.333374V6.33398C0.333374 7.00065 1.00004 7.66732 1.66671 7.66732H3.13337C3.40004 9.00065 4.26671 10.134 6.33337 10.334V11.7207C4.33337 12.0273 4.33337 13.6673 4.33337 13.6673H9.66671C9.66671 13.6673 9.66671 12.0273 7.66671 11.7207V10.334C9.73337 10.134 10.6 9.00065 10.8667 7.66732H12.3334C13 7.66732 13.6667 7.00065 13.6667 6.33398V0.333984H11ZM3.00004 6.33398H1.66671V1.66732H3.00004V6.33398ZM9.66671 6.66732C9.66671 7.95398 9.28004 9.00065 7.00004 9.00065C4.72671 9.00065 4.33337 7.95398 4.33337 6.66732V3.00065H9.66671V6.66732ZM12.3334 6.33398H11V1.66732H12.3334V6.33398Z" fill="#262626"/>
</svg>
