<svg width="38" height="38" viewBox="0 0 38 38" fill="none" xmlns="http://www.w3.org/2000/svg">
<rect x="1" y="1" width="36" height="36" rx="18" fill="#D5152C"/>
<g clip-path="url(#clip0_246_1201)">
<path d="M26.4878 34.8871H11.1038V34.4287H26.4878V34.8871Z" fill="#D5152C"/>
<path d="M26.4879 22.0526V34.4288H11.0959V22.1823C11.9679 25.8839 15.0719 28.6256 18.7759 28.6256C22.5199 28.6256 25.6559 25.8148 26.4879 22.0439V22.0526Z" fill="#2B2A29"/>
<path d="M11.1038 22.1828C11.7518 22.7277 12.5758 22.9439 13.3758 22.9439C13.4638 22.9439 13.5518 22.9439 13.6398 22.9353C14.6078 24.9418 16.5518 26.3169 18.7838 26.3169C21.4878 26.3169 23.7678 24.3018 24.3998 21.5947C24.5998 21.6726 24.7838 21.6985 24.9358 21.6985C25.1278 21.6985 25.3118 21.6639 25.4638 21.612C25.7038 21.9147 26.0958 22.0877 26.4958 22.0272C25.6718 25.8066 22.5358 28.6174 18.7838 28.6174C15.0798 28.6174 11.9758 25.8758 11.1038 22.1742V22.1828Z" fill="#E5B582"/>
<path d="M23.392 25.0544L23.768 24.6219L23.888 24.743L23.64 25.0284L23.72 25.1063L23.944 24.8468L24.056 24.9592L23.832 25.2187L23.912 25.2965L24.16 25.0025L24.28 25.1236L23.896 25.5646L23.392 25.0544ZM22.816 26.0317C22.864 25.9884 22.88 25.9365 22.848 25.8933C22.816 25.8414 22.768 25.85 22.72 25.8846L22.616 25.9625L22.712 26.1095L22.816 26.0317ZM22.368 25.9452L22.632 25.7376C22.72 25.6684 22.792 25.6511 22.856 25.6598C22.912 25.6684 22.96 25.703 23 25.7636C23.064 25.8587 23.056 25.9538 23.008 26.0403L23.28 26.1441L23.104 26.2825L22.872 26.1873L22.8 26.2392L22.92 26.4208L22.768 26.5419L22.368 25.9365V25.9452ZM21.72 26.7581C21.68 26.663 21.584 26.6025 21.488 26.6544C21.392 26.6976 21.36 26.81 21.4 26.9138C21.44 27.009 21.544 27.0695 21.64 27.0176C21.736 26.9744 21.768 26.8619 21.728 26.7581H21.72ZM21.224 26.9917C21.144 26.7927 21.224 26.5679 21.416 26.4814C21.608 26.3863 21.816 26.4814 21.896 26.6717C21.976 26.8706 21.896 27.0954 21.704 27.1819C21.512 27.2771 21.304 27.1906 21.224 26.9917ZM19.976 26.9744L20.16 26.9311L20.272 27.476L20.6 27.3981L20.64 27.5711L20.128 27.6922L19.976 26.9657V26.9744ZM19.008 27.5279L18.928 27.3203L18.856 27.5279H19.008ZM18.832 27.0781H19.016L19.32 27.8219H19.112L19.064 27.6922L18.8 27.7008L18.752 27.8392L18.552 27.8479L18.832 27.0954V27.0781ZM17.16 27.2511C17.2 27.0349 17.384 26.9052 17.592 26.9484C17.712 26.9744 17.784 27.0263 17.848 27.1127L17.712 27.2338C17.672 27.1819 17.632 27.1473 17.56 27.13C17.464 27.1127 17.368 27.1819 17.352 27.2944C17.328 27.4154 17.392 27.5106 17.496 27.5365C17.544 27.5452 17.576 27.5452 17.608 27.5279L17.624 27.4414L17.496 27.4154L17.52 27.2684L17.832 27.3376L17.776 27.6663C17.696 27.7181 17.584 27.7441 17.464 27.7181C17.256 27.6749 17.128 27.4846 17.168 27.2684L17.16 27.2511ZM15.952 26.3863L16.112 26.4641L16.232 26.9398L16.376 26.5765L16.552 26.6544L16.288 27.3376L16.136 27.2684L16.008 26.7668L15.864 27.1387L15.688 27.0608L15.952 26.3776V26.3863ZM14.872 26.2133L14.92 25.9971L14.744 26.1181L14.872 26.2133ZM14.976 25.7376L15.128 25.85L14.968 26.6457L14.8 26.516L14.832 26.3776L14.616 26.2133L14.504 26.2911L14.344 26.17L14.976 25.7376ZM13.952 25.089C13.976 25.063 13.976 25.0198 13.936 24.9765L13.848 24.8814L13.76 24.9679L13.84 25.063C13.88 25.1063 13.92 25.1236 13.944 25.089H13.952ZM13.768 25.1841L13.672 25.0717L13.576 25.1668L13.68 25.2792C13.72 25.3225 13.76 25.3311 13.784 25.3052C13.808 25.2792 13.808 25.236 13.768 25.1841ZM13.84 24.6219L14.08 24.8987C14.136 24.9679 14.168 25.0284 14.16 25.089C14.16 25.1322 14.144 25.1754 14.112 25.21C14.056 25.2706 13.992 25.2706 13.928 25.236C13.968 25.3225 13.968 25.4003 13.896 25.4695C13.808 25.556 13.696 25.53 13.584 25.4003L13.344 25.1236L13.848 24.6133L13.84 24.6219Z" fill="#2B2A29"/>
<path d="M25.4159 32.2585C25.5519 32.3277 25.6559 32.4228 25.6559 32.639C25.6559 32.8898 25.4399 33.0801 25.1279 33.0801C24.9439 33.0801 24.8159 33.0196 24.7519 32.9763L24.6799 33.0628H24.6639L24.6559 32.5525H24.6719C24.7999 32.8466 24.9439 33.0196 25.1199 33.0196C25.3039 33.0196 25.3599 32.9244 25.3599 32.8034C25.3599 32.6823 25.3119 32.6131 25.1279 32.5352C25.0479 32.5007 24.9759 32.4834 24.9199 32.4574C24.7679 32.3882 24.6799 32.2498 24.6799 32.0596C24.6799 31.7742 24.9039 31.6271 25.1679 31.6271C25.2959 31.6271 25.4399 31.679 25.5039 31.7223L25.5679 31.6444H25.5839L25.5919 32.1201H25.5759C25.4799 31.8693 25.3839 31.6877 25.1919 31.6877C25.0479 31.6877 24.9679 31.7742 24.9679 31.9039C24.9679 32.0509 25.0639 32.1115 25.1999 32.172C25.2719 32.2066 25.3599 32.2239 25.4159 32.2585ZM23.6879 31.7828H23.8319C24.0159 31.7828 24.0239 31.8952 24.0239 31.9817C24.0239 32.1634 23.8479 32.172 23.6879 32.2931V31.7828ZM23.8399 33.0196H23.8079C23.7359 33.0196 23.6799 32.9936 23.6799 32.8725V32.5093C23.6799 32.4228 23.7359 32.3709 23.8319 32.319C24.0399 32.3277 23.8399 33.0801 24.3599 33.0801C24.4559 33.0801 24.5359 33.0542 24.5839 33.0282L24.5759 32.9677C24.5599 32.9763 24.5359 32.9763 24.5119 32.9763C24.1039 32.9763 24.3839 32.3104 23.9759 32.2585C24.1759 32.1807 24.2879 32.1115 24.2879 31.9731C24.2879 31.8434 24.2719 31.6704 23.9119 31.6704H23.2159V31.7136H23.2479C23.3199 31.7136 23.3759 31.7396 23.3759 31.7742V32.7947C23.3759 32.9936 23.3199 33.0196 23.2479 33.0196H23.2159V33.0542H23.8239V33.0196H23.8399ZM20.2319 31.6704H20.7119V31.7136H20.6799C20.6079 31.7136 20.5279 31.7482 20.5279 31.8607V33.0628H20.4799L19.6399 31.9212V32.8812C19.6399 32.9936 19.7199 33.0282 19.7839 33.0282H19.8159V33.0628H19.3359V33.0282H19.3679C19.4399 33.0282 19.5199 32.9936 19.5199 32.8812V31.7742C19.4799 31.7309 19.4319 31.7136 19.3839 31.7136H19.3439V31.6704H19.8479L20.4079 32.4228V31.852C20.4079 31.7396 20.3279 31.705 20.2559 31.705H20.2239V31.6617L20.2319 31.6704ZM21.4639 32.3536H22.0399V32.3882H22.0319C21.9599 32.3882 21.9039 32.4142 21.9039 32.5352V32.9504C21.9039 32.9504 21.6799 33.0888 21.3919 33.0888C21.0399 33.0888 20.7359 32.812 20.7359 32.3709C20.7359 31.9298 21.0399 31.6444 21.3679 31.6444C21.5359 31.6444 21.6639 31.7309 21.7279 31.7309C21.7919 31.7309 21.7839 31.6444 21.7839 31.6444L21.8159 31.6358L21.9119 32.0769L21.8799 32.0855C21.8799 32.0855 21.7039 31.7396 21.4239 31.7396C21.2079 31.7396 21.0479 31.8952 21.0479 32.3536C21.0479 32.7861 21.2319 32.9677 21.4399 32.9677C21.5039 32.9677 21.5679 32.9504 21.6159 32.9331V32.518C21.6159 32.4055 21.5599 32.3709 21.4879 32.3709H21.4559V32.3363L21.4639 32.3536ZM23.1919 32.6477L23.0239 33.0542H22.0639V33.0196H22.0959C22.1679 33.0196 22.2239 32.9936 22.2239 32.8725V31.852C22.2239 31.7396 22.1679 31.705 22.0959 31.705H22.0639V31.6617H22.9599L23.0799 31.9904L23.0479 32.0077C23.0479 32.0077 22.9119 31.7742 22.6559 31.7742H22.5199V32.2844H22.7119C22.8159 32.2844 22.8719 32.1807 22.8719 32.1028V32.0855H22.9039V32.5871H22.8719V32.5698C22.8719 32.492 22.8159 32.3969 22.7119 32.3969H22.5199V32.9331H22.7279C22.9839 32.9331 23.1679 32.6217 23.1679 32.6217L23.1999 32.639L23.1919 32.6477ZM19.2799 32.6304L19.3119 32.6477L19.1439 33.0542H18.1839V33.0196H18.2159C18.2879 33.0196 18.3439 32.9936 18.3439 32.8725V31.852C18.3439 31.7396 18.2879 31.705 18.2159 31.705H18.1839V31.6617H19.0799L19.1999 31.9904L19.1679 32.0077C19.1679 32.0077 19.0319 31.7742 18.7759 31.7742H18.6399V32.2844H18.8319C18.9359 32.2844 18.9919 32.1807 18.9919 32.1028V32.0855H19.0239V32.5871H18.9919V32.5698C18.9919 32.492 18.9359 32.3969 18.8319 32.3969H18.6399V32.9331H18.8479C19.1039 32.9331 19.2879 32.6217 19.2879 32.6217L19.2799 32.6304ZM15.0399 32.5958L15.2159 32.1288L15.3919 32.5958H15.0399ZM17.0479 32.6304C17.0479 32.6304 16.8639 32.9417 16.6079 32.9417H16.3999V31.852C16.3999 31.7396 16.4559 31.705 16.5279 31.705H16.5599V31.6617H15.9519V31.705H15.9839C16.0559 31.705 16.1119 31.7309 16.1119 31.852V32.8725C16.1119 32.985 16.0559 33.0196 15.9919 33.0196C15.9279 33.0196 15.8719 32.9763 15.8319 32.8898C15.8239 32.8639 15.3279 31.6444 15.3279 31.6444H15.2879L14.8079 32.8898C14.7759 32.9763 14.7199 33.0196 14.6479 33.0196C14.5759 33.0196 14.5279 32.985 14.5279 32.8725V31.852C14.5279 31.7396 14.5839 31.705 14.6559 31.705H14.6879V31.6617H14.0799V31.705H14.1119C14.1839 31.705 14.2399 31.7309 14.2399 31.852V32.2931H13.7839V31.852C13.7839 31.7396 13.8399 31.705 13.9119 31.705H13.9439V31.6617H13.3359V31.705H13.3679C13.4399 31.705 13.4959 31.7309 13.4959 31.852V32.8725C13.4959 32.985 13.4399 33.0196 13.3679 33.0196H13.3359V33.0542H13.9439V33.0196H13.9119C13.8399 33.0196 13.7839 32.9936 13.7839 32.8725V32.4055H14.2399V32.8725C14.2399 32.985 14.1839 33.0196 14.1119 33.0196H14.0799V33.0542H15.0479V33.0196H15.0079C14.9599 33.0196 14.9039 32.985 14.9519 32.8639L15.0079 32.7082H15.4479L15.5039 32.8639C15.5519 32.985 15.4959 33.0196 15.4479 33.0196H15.4079V33.0542H16.9279L17.0959 32.6477L17.0639 32.6304H17.0479ZM12.2399 32.2239C12.2399 32.6996 12.4319 32.9677 12.6799 32.9677C12.9999 32.9677 13.1839 32.5352 13.1839 32.5352L13.2159 32.5439L13.0959 33.0801L13.0639 33.0715C13.0639 33.0715 13.0639 32.9936 13.0159 32.9936C12.9599 32.9936 12.8399 33.0715 12.6639 33.0715C12.2159 33.0715 11.9199 32.7428 11.9199 32.2152C11.9199 31.6877 12.2159 31.359 12.6639 31.359C12.8399 31.359 12.9599 31.4369 13.0159 31.4369C13.0719 31.4369 13.0639 31.359 13.0639 31.359L13.0959 31.3504L13.2159 31.8866L13.1839 31.8952C13.1839 31.8952 12.9999 31.4628 12.6799 31.4628C12.4319 31.4628 12.2399 31.7309 12.2399 32.2066V32.2239ZM18.1919 32.6477L18.0239 33.0542H17.0639V33.0196H17.0959C17.1679 33.0196 17.2239 32.9936 17.2239 32.8725V31.852C17.2239 31.7396 17.1679 31.705 17.0959 31.705H17.0639V31.6617H17.6719V31.705H17.6399C17.5679 31.705 17.5119 31.7309 17.5119 31.852V32.9417H17.7199C17.9759 32.9417 18.1599 32.6304 18.1599 32.6304L18.1919 32.6477ZM16.2719 29.5428H16.4319C16.6159 29.5428 16.7039 29.638 16.7039 29.785C16.7039 30.0531 16.4319 30.0963 16.2719 30.2174V29.5428ZM16.4239 31.0563H16.3999C16.3279 31.0563 16.2719 31.0304 16.2719 30.9093V30.425C16.2719 30.3385 16.3439 30.2866 16.4399 30.2434C16.6479 30.252 16.7279 31.4282 17.3839 31.4282C17.5839 31.4282 17.7039 31.2985 17.7039 31.2985L17.6799 31.2725C17.6799 31.2725 17.6079 31.3331 17.4959 31.3331C17.0959 31.3331 16.9919 30.2261 16.5919 30.1742C16.7919 30.0963 17.0159 30.0012 17.0159 29.759C17.0159 29.5861 16.8799 29.4131 16.5279 29.4131H15.8319V29.4477H15.8559C15.9279 29.4477 15.9839 29.4736 15.9839 29.5947V30.9007C15.9839 31.0131 15.9279 31.0477 15.8559 31.0477H15.8319V31.0823H16.4319V31.0477L16.4239 31.0563ZM19.9679 30.1742L20.1439 30.6412H19.7919L19.9599 30.1742H19.9679ZM19.3999 31.0563H19.3679V31.0909H19.7919V31.0563H19.7519C19.7039 31.0563 19.6479 31.0217 19.6959 30.9093L19.7519 30.7536H20.1839L20.2399 30.9007C20.2879 31.0217 20.2319 31.0563 20.1839 31.0563H20.1439V31.0909H21.6399L21.8079 30.6844L21.7759 30.6671C21.7759 30.6671 21.5919 30.9785 21.3439 30.9785H21.1439V29.9061C21.1439 29.7936 21.1999 29.7677 21.2719 29.7677H21.2959V29.7331H20.6959V29.7677H20.7199C20.7919 29.7677 20.8479 29.7936 20.8479 29.9061V30.918C20.8479 31.0304 20.7919 31.0563 20.7279 31.065C20.6639 31.065 20.6079 31.0217 20.5759 30.9352C20.5519 30.8747 20.0799 29.7071 20.0799 29.7071H20.0399L19.5679 30.9352C19.5359 31.0217 19.4799 31.065 19.4079 31.065L19.3999 31.0563ZM18.3839 29.759H18.3519V29.7244H18.9839V29.759H18.9439C18.8959 29.759 18.8239 29.7936 18.8879 29.9147L19.1279 30.3644C19.1279 30.3644 19.3119 30.0358 19.3759 29.9147C19.4399 29.7936 19.3679 29.759 19.3199 29.759H19.2799V29.7244H19.7199V29.759H19.6879C19.6239 29.759 19.5759 29.8023 19.5279 29.8888L19.1919 30.5028V30.9093C19.1919 31.0217 19.2479 31.0563 19.3119 31.0563H19.3439V31.0909H18.7439V31.0563H18.7759C18.8479 31.0563 18.8959 31.0304 18.8959 30.9093V30.5374L18.5519 29.8888C18.5039 29.8023 18.4639 29.759 18.3919 29.759H18.3839ZM17.8159 29.8023C18.0239 29.8023 18.1439 29.9925 18.1439 30.4077C18.1439 30.8228 18.0159 31.0131 17.8159 31.0131C17.6079 31.0131 17.4879 30.8228 17.4879 30.4077C17.4879 29.9925 17.6159 29.8023 17.8159 29.8023ZM17.8159 31.1169C18.1759 31.1169 18.4559 30.8488 18.4559 30.4077C18.4559 29.9666 18.1759 29.6985 17.8159 29.6985C17.4559 29.6985 17.1759 29.9666 17.1759 30.4077C17.1759 30.8488 17.4559 31.1169 17.8159 31.1169Z" fill="#FEFEFE"/>
<path d="M19.128 6.88312C18.92 6.83122 18.144 6.76203 18.128 6.83122C18.112 6.90906 18.288 6.90906 18.696 7.2723C18.808 7.36744 18.96 7.41068 19.12 7.38474C19.224 7.36744 19.288 7.31555 19.384 7.23771C19.624 7.04744 19.448 7.01285 19.128 6.89176V6.88312ZM24.208 19.9339C24.08 19.8993 23.2 19.5274 23.008 19.4237C22.592 19.2074 21.04 18.0053 20.704 17.6247C20.32 17.1837 19.656 16.855 19.608 16.9242C19.608 16.9242 20.328 17.7545 20.184 18.5674C20.136 18.8615 20.104 18.9826 20.248 18.7923C20.528 18.4204 20.472 18.0053 20.48 18.0139C20.504 18.0399 21.192 18.4464 21.112 19.6658C21.104 19.7696 21.496 19.242 21.544 18.9826C21.624 18.9826 22.04 19.7177 22.008 20.0464C21.984 20.2799 22.136 20.1328 22.232 19.9858C22.288 19.8993 22.32 19.7869 22.336 19.7091C22.352 19.6053 22.376 19.6312 22.488 19.6572C22.832 19.7523 23.776 19.8561 24.216 19.9339H24.208ZM17.584 22.8226C17.448 24.1891 16.272 24.9242 16.264 24.9761C16.264 24.9847 18.352 24.6474 17.584 22.8226ZM12.144 12.4096C12.056 11.4237 10.352 10.3772 10.944 8.05933C9.69602 9.63339 10.576 10.3685 11.056 10.9566C11.184 11.121 11.328 11.242 11.392 11.3977C11.464 11.5707 11.24 11.4583 11.104 11.4496C10.2 11.4237 10.032 12.2107 10.128 12.2453C10.192 12.2626 10.952 11.1642 11.968 12.3058C12.032 12.375 12.16 12.5912 12.144 12.4183V12.4096ZM13.368 21.8712C13.528 21.8712 13.952 21.8626 13.976 21.7415C13.992 21.6637 13.928 21.4993 13.856 21.4734C13.744 21.4301 12.888 21.7501 12.128 21.3264C11.848 21.1707 11.552 20.9026 11.528 20.9112C11.48 20.9372 11.84 21.8972 13.376 21.8712H13.368ZM10.912 20.6172C10.832 20.2193 10.896 20.0377 10.8 19.8993C10.728 19.7955 10.616 19.6918 10.416 19.6918C9.75202 19.7004 9.80002 20.1069 9.81602 19.8907C9.82402 19.6139 9.97602 18.922 10.816 19.0172C10.96 19.0345 11.024 18.5588 10.968 18.4031C10.616 17.495 10.008 18.161 9.95202 18.5847C9.84802 18.6366 9.73602 17.9188 9.85602 17.5037C10.056 16.8464 10.72 16.4745 11.312 17.2615C11.552 16.6474 12.544 13.4647 11.64 12.548C11.312 12.2107 10.736 12.2453 10.392 12.5393C10.112 12.7815 10.072 13.2572 9.99202 13.2572C9.86402 13.2572 9.34402 12.5653 9.40802 11.9339C9.49602 11.0864 10.304 10.9912 10.344 10.9393C10.4 10.8615 10.272 10.775 10.2 10.6885C9.72002 10.1783 9.64802 9.09717 10.224 8.41393C11.504 6.89176 11.112 6.65825 11.264 6.69285C11.344 6.71014 11.632 7.08203 11.696 7.48852C11.872 8.56095 11.224 8.74258 11.688 10.0918C11.656 9.99663 11.72 9.17501 12.24 8.63879C12.496 8.37068 13.288 8.05933 13.376 8.17176C13.384 8.36203 12.352 8.49176 13.024 10.8615C13.304 11.8561 13.28 13.7847 12.544 15.7739C12.52 15.8345 12.624 15.7566 12.776 15.7566C13.304 15.748 13.536 16.1372 13.504 16.6388C13.488 16.881 13.408 16.7166 13.224 16.682C11.712 16.4399 11.6 18.4291 11.56 19.268C11.52 20.1155 11.68 21.1793 14.16 20.8507C14.296 20.8334 14.432 21.8799 14.432 21.9664C14.44 22.122 14.352 22.1653 14.208 22.1912C12.088 22.615 11.072 21.4388 10.896 20.5999L10.912 20.6172ZM22.824 14.6237C23.048 14.8485 23.128 15.2118 23.2 15.5145C23.504 16.7426 24.488 16.7599 24.512 16.708C24.52 16.6907 23.976 16.388 24.016 15.3155C24.032 14.8399 23.736 14.2691 23.312 14.001C22.224 13.2918 20.768 13.6637 20.144 13.4907C20.776 14.2691 21.312 15.4453 21.664 15.7566C21.992 16.0507 22.312 16.1804 23.12 16.9328C23.104 16.9155 22.776 15.2983 22.392 14.762C22.352 14.7015 22.016 14.3037 21.984 14.3123C22.232 14.2258 22.648 14.4507 22.816 14.6323L22.824 14.6237ZM25.544 9.2269C25.536 9.13176 25.2 9.93609 23.96 11.4323C23.904 11.4928 24.016 11.8042 24.152 11.9945C24.192 12.055 24.312 12.202 24.384 12.1674C24.424 12.1501 24.352 11.7091 24.808 10.9999C25.128 10.4983 25.464 9.8323 25.544 9.21825V9.2269ZM28.6 8.16312C28.6 8.20636 28.6 8.2323 28.512 8.20636C28.368 8.16312 28.2 8.07663 28.064 8.19771C27.92 8.32744 27.888 8.50041 27.696 8.59555C27.384 8.75122 26.896 8.62149 26.704 9.00203C26.624 9.15771 26.616 9.41717 26.808 9.46906C26.968 9.5123 27.304 9.20095 27.68 9.67663C27.712 9.71122 28.096 9.46906 28.136 9.5123C28.176 9.60744 27.936 10.0399 27.856 10.1783C27.44 10.9307 26.856 10.7491 26.624 10.6712C26.36 10.5847 26.136 10.5501 25.976 10.8442C25.728 11.2939 25.792 11.8042 25.704 12.2885C25.688 12.401 25.56 13.0496 25.44 13.0323C25.336 13.015 25.176 12.2712 25.072 12.2972C25.048 12.3058 25.144 13.1274 24.816 13.4734C24.784 13.508 24.568 12.6345 23.776 12.5393C23.744 12.1761 23.616 11.9772 23.24 11.6312C23.464 11.3458 23.808 10.9047 24.032 10.6193C24.464 10.0658 24.968 9.5642 25.192 8.86366C25.384 8.27555 25.472 7.67014 25.824 7.16852C25.992 6.92636 26.608 6.30366 27.416 6.55447C27.496 6.58041 28.032 6.47663 28.08 6.81393C28.088 6.84852 27.872 6.80528 27.744 6.90041C27.608 6.99555 27.552 7.19447 27.52 7.22041C26.688 7.14258 26.712 7.9469 26.8 7.85176C26.992 7.65285 27.544 7.26366 28.24 7.69609C28.472 7.84312 28.6 8.10258 28.6 8.16312ZM16.912 5.76744C18.408 5.15339 19.6 5.81068 19.6 5.78474C18.152 4.67771 16.912 5.76744 16.912 5.76744ZM18.12 4.14149C18.12 4.26257 18.168 4.36636 18.232 4.36636C18.296 4.36636 18.344 4.27122 18.344 4.14149C18.344 4.02041 18.296 3.91663 18.232 3.91663C18.168 3.91663 18.12 4.01176 18.12 4.14149ZM20.88 4.69501C20.584 4.7469 20.568 4.92852 20.504 5.11879C20.408 5.49933 20.28 5.49068 20.208 5.51663C19.736 5.60312 19.896 6.0096 19.904 6.03555C19.896 6.03555 19.896 6.0442 19.888 6.0442C19.84 6.08744 19.68 6.26041 19.656 6.37285C19.632 6.3469 18.12 5.55122 16.816 6.3642C16.816 6.37285 16.792 6.20852 16.56 6.0269C16.56 6.0269 16.728 5.61176 16.248 5.51663C16.176 5.49068 16.048 5.49068 15.952 5.11879C15.888 4.92852 15.872 4.7469 15.576 4.69501C15.576 4.69501 15.72 4.50474 16.072 4.65176L16.28 4.46149L16.32 4.72095L16.584 4.65176L16.488 4.96312L16.744 5.01501L16.576 5.18798C16.576 5.18798 17.08 5.45609 17.024 4.78149L16.84 4.90258C16.84 4.90258 16.68 4.66041 16.656 4.4096C16.648 4.41825 16.904 4.40095 16.904 4.40095L16.672 4.0896C16.672 4.0896 16.992 3.90798 17.216 3.89933C17.216 3.89068 17.232 4.27122 17.232 4.27122L17.448 4.0723C17.448 4.0723 17.56 4.38366 17.584 4.63447C17.568 4.62582 17.296 4.63447 17.296 4.63447C17.296 4.63447 17.68 5.30041 17.968 4.62582C17.96 4.61717 17.808 4.66041 17.664 4.48744C17.656 4.48744 17.672 4.38366 17.768 4.32312C17.688 4.28852 17.6 4.17609 17.608 4.1242C17.608 4.0896 17.664 4.04636 17.752 4.02041C17.736 4.02041 17.648 3.90798 17.632 3.76095C17.632 3.7696 17.704 3.71771 17.864 3.77825C17.864 3.77825 17.8 3.70041 17.784 3.44095C17.776 3.4323 17.896 3.40636 18.04 3.4496C18.056 3.4496 18.072 3.33717 18.168 3.18149C18.176 3.17285 18.176 3.1642 18.184 3.1642C18.2 3.1469 18.208 3.1296 18.224 3.1123C18.224 3.1123 18.256 3.1469 18.28 3.19014C18.384 3.34582 18.4 3.45825 18.408 3.45825C18.552 3.42366 18.672 3.44095 18.664 3.4496C18.656 3.70906 18.592 3.7869 18.592 3.7869C18.752 3.73501 18.816 3.77825 18.816 3.7696C18.8 3.91663 18.712 4.02906 18.696 4.02906C18.784 4.05501 18.84 4.09825 18.84 4.13285C18.84 4.18474 18.76 4.29717 18.68 4.33176C18.776 4.3923 18.792 4.49609 18.784 4.49609C18.64 4.66906 18.488 4.62582 18.48 4.63447C18.768 5.31771 19.152 4.64312 19.152 4.64312C19.152 4.64312 18.888 4.63447 18.864 4.64312C18.888 4.3923 19 4.08095 19 4.08095L19.216 4.27987C19.216 4.27987 19.232 3.89933 19.232 3.90798C19.448 3.91663 19.776 4.09825 19.776 4.09825L19.544 4.4096C19.544 4.4096 19.808 4.4269 19.792 4.41825C19.768 4.66906 19.608 4.91122 19.608 4.91122L19.424 4.79014C19.368 5.45609 19.872 5.19663 19.872 5.19663L19.704 5.02366L19.96 4.97176L19.856 4.66041L20.12 4.7296L20.16 4.47014L20.368 4.66041C20.72 4.51339 20.864 4.70366 20.864 4.70366L20.88 4.69501ZM15.16 11.6831C15.264 11.5793 15.376 11.5534 15.248 11.7955C14.776 12.7383 14.528 13.7588 15.336 14.935C15.352 14.9523 15.376 14.961 15.376 14.935C15.424 14.6669 15.632 13.8799 16.472 13.188C16.552 13.1188 17.024 12.721 17.048 12.7296C17.128 12.7469 16.984 13.0755 17.512 13.5599C17.648 13.681 17.584 13.4993 17.68 13.361C17.856 13.1188 18.208 12.6518 18.36 12.3404C18.384 12.2885 18.632 12.5739 18.768 13.0928C18.912 12.3664 18.76 12.0983 18.432 11.8042C18.352 11.735 18.416 12.0723 17.624 12.868C17.296 12.4442 17.4 11.6572 17.352 11.6053C17.368 11.6139 17.024 12.2193 16.52 12.4701C15.808 12.8247 15.712 13.1361 15.68 13.0669C15.432 12.5912 15.696 12.1415 15.824 11.7869C15.904 11.562 16.408 10.5242 16.368 10.4377C16.272 10.5155 15.432 10.9999 15.448 10.8615C15.592 9.5642 16.424 9.63339 16.536 8.71663C16.544 8.68203 16.128 8.99339 16.072 9.02798C15.848 9.16636 15.816 9.21825 15.88 8.95014C16.016 8.33609 16.568 7.9123 16.488 7.92095C15.384 7.99879 15.656 9.2096 14.568 9.59879C14.608 9.71122 14.904 9.67663 14.992 9.66798C15.072 9.65933 15.304 9.65933 15.376 9.65933C14.576 10.6193 14.92 11.2939 14.496 11.9858C14.448 12.0723 14.952 11.8474 15.144 11.6745L15.16 11.6831ZM16.088 7.56636C16.4 7.58366 16.752 7.3069 16.648 7.2896C15.848 7.18582 15.32 6.53717 15.312 6.52852C15.256 6.51987 15.368 6.87447 15.376 6.91771C15.472 7.33285 15.664 7.53176 16.088 7.55771V7.56636ZM17.92 10.6972C17.952 10.6972 17.96 10.6885 17.976 10.6539C18.008 10.5761 17.808 10.455 18.072 9.77176C18.184 9.46906 18.192 9.1923 18.192 8.8723C18.192 8.47447 18.488 8.11987 18.48 8.10258C18.432 8.05068 17.848 8.57825 17.864 8.97609C17.872 9.18366 17.896 9.31339 17.792 9.47771C17.152 10.481 17.864 10.6972 17.92 10.6972ZM13.432 12.0896C14.432 12.1501 14.104 11.1383 14.312 10.628C14.392 10.4291 14.6 10.2301 14.648 10.0658C14.52 10.0831 13.536 10.3166 13.656 9.13176C13.664 9.07122 13.96 9.40852 14.352 9.30474C15.16 9.05393 15.064 8.17176 15.64 7.78258C14.968 7.52312 15.28 6.87447 14.896 6.33825C14.8 6.19987 14.6 6.15663 14.592 6.12203C14.584 6.07879 15.648 5.88852 16.328 6.56312C16.592 6.82258 16.504 6.86582 16.712 6.65825C17.528 5.86258 19.72 6.13068 19.952 7.0042C20.04 7.05609 20.672 7.19447 20.952 7.19447C21.128 7.19447 21.424 7.25501 21.376 7.48852C21.256 8.02474 20.936 8.01609 20.96 8.11987C21.048 8.5523 20.776 9.14906 20.72 9.13176C20.672 9.11447 20.672 8.89825 20.624 8.86366C20.232 8.57825 19.528 8.50041 19.16 8.09393C18.752 8.31014 18.8 9.00203 18.792 9.2269C18.76 9.90149 18.576 9.95339 18.616 10.0312C18.776 10.2647 19.064 10.3772 19.4 10.3858C19.728 10.3945 19.696 10.4896 20.016 10.4464C20.152 10.4291 20.352 10.2215 20.384 10.2388C20.408 10.2561 20.392 10.5415 20.28 10.7318C20.176 10.9307 19.928 10.9912 19.696 10.9653C19.32 10.922 18.704 10.8528 18.496 11.2939C18.36 11.588 18.56 11.4496 18.888 11.3112C19.888 10.9047 20.128 12.1501 21.504 10.8355C21.512 10.8269 21.52 10.8355 21.52 10.8442C21.528 11.0604 21.592 11.6226 20.872 11.9772C20.504 12.1588 19.76 12.081 19.568 12.2539C20.616 12.7642 21.504 12.0118 22.104 11.9685C22.528 11.9339 23.176 12.1501 23.272 12.6777C23.168 12.5307 22.704 12.5047 22.52 12.5826C20.432 13.4561 19.792 12.6864 19.632 12.8074C19.456 12.9372 19.448 13.3264 19.512 13.4993C19.656 13.8626 19.984 14.295 20.192 15.1512C19.504 14.5026 18.704 14.4593 18.536 13.7761C18.488 13.5945 18.48 13.3004 18.424 13.1361C18.424 13.1361 18.288 13.4561 18.248 13.6204C18.128 14.1653 18.88 14.6237 18.88 15.8864C17.36 15.1512 17.36 14.321 17.384 14.122C17.384 14.1047 17.368 14.1047 17.36 14.1134C17.288 14.2258 17.128 14.6323 17.408 15.601C17.592 16.2583 17.336 16.9155 17.336 16.8896C17.296 16.3707 16.68 15.8172 16.464 15.1339C16.24 14.442 16.648 13.9318 16.632 13.8972C16.608 13.8366 15.864 14.2777 16 15.255C16.096 15.9383 16.528 16.1372 16.704 16.682C16.88 17.2269 16.8 18.1437 15.576 18.4118C15.44 18.4377 15.528 18.3599 15.6 18.2474C15.968 17.7199 15.568 16.8377 15.472 16.7945C15.424 16.7685 15.176 17.0712 14.704 17.0539C14.064 17.028 13.864 16.3534 13.944 16.362C14.984 16.4312 14.784 15.2204 14.72 15.3069C14.664 15.3847 13.76 15.8258 13.536 15.1339C13.528 15.108 13.544 15.082 13.568 15.0734C14.608 15.0301 14.216 13.9145 14.184 13.5166C14.128 12.8766 14.504 12.5912 14.472 12.5134C14.456 12.4701 13.376 12.7469 13.4 12.1069L13.432 12.0896ZM25.432 15.4107C25.672 15.3328 25.808 15.1858 25.888 15.1166C25.896 15.108 25.896 15.0993 25.88 15.0907C25.728 15.082 25.168 15.0215 24.808 14.3123C24.464 13.6377 23.944 12.9977 23.168 12.9977C22.824 13.0064 22.072 13.1966 22.104 13.2485C22.136 13.3091 23.376 13.2658 23.92 14.0788C24.296 14.641 24.6 15.6701 25.432 15.402V15.4107ZM19.808 9.11447C19.464 8.82041 19.112 8.99339 18.944 9.46041C18.896 9.59879 18.928 9.58149 18.96 9.57285C19.36 9.45176 19.52 9.55555 19.76 9.67663C20.328 9.94474 20.728 9.81501 20.936 9.36528C20.768 9.36528 20.52 9.71987 19.808 9.11447ZM27.984 20.3664C27.848 20.2972 27.864 20.0204 27.672 19.9858C27.504 19.9599 27.336 20.1847 27.168 20.1155C26.656 19.882 26.2 20.0031 26.104 20.1155C26.176 20.1761 26.672 20.3145 26.784 20.401C27 20.5566 27.152 20.8507 27.016 21.2831C26.952 21.4993 27.016 21.6291 26.888 21.828C26.728 22.0788 26.704 21.9923 26.752 21.7674C26.76 21.7155 26.696 21.6723 26.6 21.4993C26.536 21.3869 25.88 21.6377 25.664 20.8507C25.504 20.9631 24.592 21.5166 23.752 20.4183C23.24 19.7523 22.584 20.6431 21.32 20.7555C21.256 20.7642 21.632 20.3491 21.528 19.8647C21.488 19.6831 21.496 19.7177 21.392 19.8042C21.2 19.9426 20.84 20.1501 20.584 20.1415C20.52 20.1415 20.912 19.761 20.616 18.775C20.6 18.7145 20.28 19.3372 19.688 19.3285C19.784 18.8183 19.8 18.5155 19.712 18.2993C19.616 18.0485 19.344 17.8496 18.96 17.6247C18.976 17.6507 19.048 17.7718 19.064 17.7891C19.744 19.0345 19.04 19.6831 19.152 19.7177C19.848 19.9512 20.312 19.4755 20.36 19.5101C20.44 19.5534 20.296 19.9772 20.136 20.2712C19.888 20.7296 19.52 20.9631 19.048 21.2312C18.68 21.4388 18.008 21.7069 18.112 22.2777C18.16 22.5199 18.744 23.3069 18.8 23.748C18.864 24.2496 18.392 24.9069 18.312 25.348C18.28 25.495 18.288 25.6507 18.32 25.7891C18.048 25.7631 17.792 25.7199 17.536 25.6507C17.48 25.5383 17.44 25.3999 17.432 25.2442C17.424 25.1231 17.448 25.028 17.384 25.0972C17.256 25.2269 17.168 25.3739 17.112 25.521C16.408 25.2701 15.76 24.8637 15.216 24.3361C16.264 23.3415 16.016 21.7069 15.984 21.335C15.864 19.9512 17.192 20.0377 17.968 17.6507C17.376 18.922 15.04 19.5015 15.312 21.4734C15.44 22.4247 15.552 23.1339 14.944 24.0507C14.84 23.9383 14.744 23.8172 14.656 23.6961C15.04 22.8745 14.68 21.7501 14.736 20.8939C14.864 18.9047 18.264 18.4031 17.96 15.9642C17.96 15.9469 17.976 15.9383 17.992 15.9383C18.568 16.1631 18.856 16.6474 18.992 16.8723C19.016 16.9155 19.048 16.9761 19.072 17.028C19.192 16.8983 19.384 16.561 19.456 16.1977C19.512 15.9123 19.536 15.5491 19.448 15.1512C19.44 15.0993 20.256 15.6442 20.416 15.8691C20.544 16.042 20.64 16.362 20.672 16.0334C20.688 15.8691 20.712 15.5231 20.664 15.0474C20.768 15.1253 20.936 15.6096 21.336 16.0507C21.656 16.4139 23.16 17.4691 23.992 18.4723C24.232 18.7577 24.704 18.8961 25.048 18.7664C25.552 18.5761 25.528 17.495 26.624 17.4431C26.936 17.4258 27.368 17.2183 27.544 17.668C27.624 17.8669 27.432 17.7718 27.288 17.7891C27.096 17.815 27 17.9101 27 18.1004C27.008 18.5847 26.328 18.9393 26.32 19.0085C26.496 19.0777 27.256 18.6972 27.616 19.0864C27.696 19.1728 27.704 19.2853 27.768 19.3804C28.168 20.0031 28.008 20.3664 27.976 20.3491L27.984 20.3664ZM21.672 24.8723C21.424 25.0453 21.168 25.201 20.888 25.3307C20.12 25.3739 19.344 25.6161 19.36 25.5383C19.72 23.6442 19.016 22.7361 18.92 22.4853C18.56 21.5772 20 21.6118 20.8 21.015C20.904 20.9372 20.952 21.0237 21.024 21.1534C21.176 21.4128 21.504 22.148 22.048 22.5631C22.696 23.0647 23.104 23.0907 23.36 22.961C23.032 23.5664 22.6 24.0939 22.096 24.535C20.448 24.2064 20.08 23.7047 20.072 23.8864C20.064 24.0766 20.08 24.7772 20.152 24.8204C20.208 24.855 20.976 24.7339 21.672 24.8723Z" fill="#E5B582"/>
<path d="M22.16 24.5004C19.064 23.8172 18.968 22.3123 18.944 22.1912C18.968 21.9231 19.536 21.6377 20.048 21.6031C20.144 21.5945 19.992 22.7015 22.808 23.8172C22.608 24.068 22.392 24.2929 22.16 24.5004ZM18.048 25.7631C17.912 25.7458 17.776 25.7199 17.64 25.6853C17.536 25.5037 17.48 25.2961 17.512 25.0626C17.536 25.002 17.592 24.9329 17.688 24.7166C17.784 24.5004 17.792 24.3188 17.816 24.2756C17.8 25.0193 17.92 25.4777 18.056 25.7545L18.048 25.7631ZM10.408 19.6485C10.032 19.6226 9.85599 19.8302 9.86399 19.8129C10.072 19.4323 10.336 19.3112 10.608 19.3026C11.816 19.242 10.856 21.6723 14.048 21.0756C14.12 21.0583 13.944 21.3696 13.888 21.4561C13.8 21.4129 13.6 21.4907 13.304 21.508C13.064 21.5166 12.584 21.5512 12.2 21.335C10.752 20.5307 11.176 19.7091 10.4 19.6572L10.408 19.6485ZM12.776 22.1999C12.128 22.0961 11.336 21.655 11.096 20.9891C11.168 21.1188 12.184 22.5804 14.144 21.9404C14.184 21.9231 14.336 22.0702 14.312 22.0788C14.136 22.1566 13.648 22.3469 12.784 22.1999H12.776ZM18.216 3.2334C18.208 3.2334 18.416 3.62259 18.224 3.86475C18.224 3.86475 18.024 3.69178 18.216 3.2334ZM16.744 4.11556C16.744 4.11556 16.84 4.05502 16.928 4.02907C16.928 4.02907 17.04 4.26259 17.08 4.47016C17.08 4.46151 17.056 4.43556 16.944 4.40961C16.936 4.40961 16.736 4.11556 16.736 4.11556H16.744ZM19.36 4.47016C19.4 4.26259 19.504 4.02907 19.512 4.02907C19.608 4.06367 19.696 4.11556 19.696 4.11556C19.696 4.11556 19.504 4.40961 19.488 4.40961C19.376 4.43556 19.36 4.46151 19.352 4.47016H19.36ZM19.456 5.1707C19.304 4.98043 19.344 4.59124 19.344 4.59124C19.344 4.59124 19.568 4.72961 19.576 4.72961C19.632 4.59988 19.64 4.47016 19.64 4.47016L19.752 4.46151C19.736 4.64313 19.608 4.86799 19.608 4.86799C19.608 4.86799 19.424 4.74691 19.416 4.74691C19.36 4.91124 19.464 5.1707 19.464 5.1707H19.456ZM16.84 4.85934C16.84 4.85934 16.712 4.63448 16.696 4.45286L16.808 4.46151C16.808 4.46151 16.816 4.59124 16.872 4.72097C16.88 4.72097 17.104 4.58259 17.104 4.58259C17.104 4.58259 17.136 4.97178 16.992 5.16205C16.992 5.16205 17.096 4.90259 17.04 4.73826C17.032 4.73826 16.848 4.85934 16.848 4.85934H16.84ZM17.272 4.61718L17.216 4.53934C17.216 4.53934 17.504 4.52205 17.52 4.52205C17.536 4.52205 17.552 4.61718 17.552 4.61718H17.272ZM18.608 3.51016C18.6 3.70907 18.512 3.8734 18.472 3.91664C18.608 3.82151 18.744 3.84745 18.744 3.84745C18.744 3.84745 18.488 4.09826 18.48 4.09826C18.688 4.06367 18.808 4.14151 18.808 4.14151L18.496 4.28853C18.664 4.34043 18.768 4.4788 18.768 4.4788C18.768 4.4788 18.56 4.47016 18.416 4.47016L18.448 4.7988L18.272 4.47016H18.28C18.28 4.47016 18.272 4.47016 18.28 4.47016C18.56 4.1588 18.32 3.8907 18.32 3.8907L18.632 3.51016H18.608ZM19.168 4.62583H18.888C18.888 4.62583 18.904 4.52205 18.92 4.52205C18.936 4.52205 19.224 4.53934 19.224 4.53934L19.168 4.61718V4.62583ZM17.968 4.09826C17.96 4.08961 17.704 3.84745 17.704 3.84745C17.704 3.84745 17.84 3.83016 17.976 3.91664C17.936 3.88205 17.848 3.71772 17.84 3.51016L18.152 3.8907C18.152 3.8907 17.904 4.15016 18.192 4.47016L18.016 4.7988L18.048 4.47016C17.904 4.4788 17.696 4.4788 17.696 4.4788C17.696 4.4788 17.8 4.33178 17.968 4.28853L17.648 4.14151C17.648 4.14151 17.768 4.05502 17.976 4.09826H17.968ZM17.152 4.73826C17.736 5.35232 18.104 4.85934 18.216 4.59988C18.4 4.98907 18.776 5.26583 19.28 4.72961C19.16 5.18799 19.328 5.32637 19.408 5.38691C18.856 5.12745 17.944 4.91124 17.016 5.38691C17.104 5.34367 17.256 5.14475 17.144 4.73826H17.152ZM20.72 4.72961C20.52 4.76421 20.496 4.86799 20.432 5.06691C20.36 5.37826 20.208 5.42151 20.096 5.46475C19.72 5.55988 19.8 5.94043 19.792 5.92313C19.576 5.67232 19.592 5.38691 19.592 5.38691C20.136 5.50799 20.184 5.1707 20.248 5.02367C20.424 4.64313 20.728 4.72097 20.72 4.72961ZM16.344 5.4561C16.232 5.41286 16.08 5.36961 16.008 5.05826C15.944 4.8507 15.928 4.75556 15.72 4.72097C15.712 4.71232 16.016 4.63448 16.192 5.01502C16.248 5.16205 16.304 5.49934 16.848 5.37826C16.848 5.37826 16.864 5.66367 16.648 5.91448C16.64 5.92313 16.72 5.55124 16.344 5.4561ZM11.752 10.1869C11.744 9.77178 11.968 8.78583 12.96 8.3534C13.032 8.3188 11.6 9.30475 12.144 10.9566C12.16 10.9999 11.76 10.2647 11.752 10.1869ZM17.4 11.441C16.72 12.522 16.216 12.2712 15.672 12.9891C15.52 11.1469 17.04 11.6572 17.152 10.7491C18.256 11.1815 17.776 12.0464 17.64 12.7556C17.424 12.5566 17.416 11.4496 17.4 11.4496V11.441ZM10.952 7.86907C9.18399 9.91016 11.024 10.7491 11.248 11.3977C10.128 11.3112 10.032 12.0031 9.98399 12.1934C9.66399 11.4064 10.84 11.1642 10.568 10.9999C10.064 10.6885 9.25599 9.12313 10.952 7.87772V7.86907ZM11.48 17.1577C11.8 16.3793 12.432 14.1566 11.912 12.8161C11.624 12.0637 10.296 11.9512 9.92799 13.0756C9.91999 13.1015 9.87999 13.1015 9.87199 13.0756C9.76799 12.6864 10.28 11.8993 10.944 11.8993C11.608 11.8993 12.104 12.4961 12.248 13.1966C12.376 13.8366 12.368 15.7393 11.488 17.1577H11.48ZM9.88799 18.455C9.65599 17.5123 10.568 16.8896 11.024 17.9015C11.216 18.3858 11.288 18.8183 11.144 18.8096C11.096 18.3772 10.456 17.1837 9.88799 18.4464V18.455ZM26.64 7.28961C26.736 6.86583 27.232 6.81394 27.344 6.81394C27.448 6.81394 27.616 6.50259 28.016 6.76205C28.024 6.76205 28.024 6.77934 28.016 6.77934C27.936 6.77934 27.832 6.76205 27.728 6.81394C27.6 6.88313 27.504 7.04745 27.44 7.14259C26.616 7.04745 26.728 7.79124 26.696 7.78259C26.664 7.77394 26.56 7.68745 26.648 7.29826L26.64 7.28961ZM28.496 8.13718C28.24 8.0334 28.088 8.05934 28 8.13718C27.896 8.22367 27.736 8.47448 27.648 8.54367C27.408 8.70799 26.416 8.52637 26.616 9.39989C26.504 9.46043 25.8 8.29286 27.832 8.0161C27.912 7.88637 28.256 7.70475 28.504 8.14583L28.496 8.13718ZM27.872 9.9534C27.728 10.1869 27.632 10.6712 26.944 10.6712C26.52 10.6712 26.264 10.3599 25.952 10.6972C26.016 10.4896 26.088 10.3339 26.424 10.282C27.008 10.5502 27.632 10.1696 27.664 9.81502C27.664 9.78907 28.056 9.56421 28.064 9.58151C28.096 9.6507 27.92 9.86691 27.872 9.9534ZM23.912 11.3458C23.936 11.2161 24.016 10.9047 24.032 10.8875C24.32 10.5329 25.264 9.36529 25.616 8.71664C25.624 8.70799 25.632 8.71664 25.632 8.72529C25.4 9.47772 24.096 11.0777 23.92 11.3545C23.912 11.3631 23.904 11.3545 23.904 11.3458H23.912ZM25.968 9.6334C25.56 10.8183 25.632 12.5048 25.44 12.9112C25.336 12.8075 25.184 12.2799 25.08 12.1156C25.144 11.9512 25.136 10.7837 25.968 9.6334ZM23.352 11.6572C23.336 11.6485 23.352 11.6226 23.368 11.6226C23.488 11.6485 23.696 11.7177 23.936 12.2972C23.984 12.4183 24.968 11.9253 24.784 13.2918C24.784 13.3004 24.768 13.3004 24.768 13.2918C24.544 12.5826 23.792 12.5134 23.784 12.4788C23.76 12.1675 23.504 11.8042 23.352 11.6572ZM13.456 12.1761C13.448 12.1675 13.944 12.5912 15.016 11.9339C14.992 11.9599 14.544 12.4183 14.52 12.4356C14.304 12.5048 13.672 12.6604 13.448 12.1675L13.456 12.1761ZM14.672 14.3988C14.888 14.6583 15.168 15.255 15.096 15.7307C15.04 16.1026 14.848 16.3707 14.504 16.4053C14.696 16.3188 15.112 15.5664 14.728 15.108C14.704 15.0734 14.088 15.8345 13.592 15.1772C14.528 15.281 14.68 14.4161 14.664 14.3988H14.672ZM17.32 16.6215C17.352 16.5437 16.736 15.6615 16.592 15.2983C16.312 14.615 16.632 13.9404 16.768 13.7675C16.784 13.7502 16.944 13.6204 16.92 13.6291C16.44 13.6723 15.472 14.9004 15.432 14.9956C15.544 14.0875 16.76 13.1102 16.944 12.8507C16.968 12.8161 16.96 13.5772 16.96 13.5945C16.96 13.6031 17.344 14.0961 17.344 14.1048C17.224 14.148 17.024 14.1566 17 14.1826C16.512 14.8918 17.584 15.9037 17.312 16.6302L17.32 16.6215ZM17.744 15.0215C17.328 14.4853 17.48 14.148 17.48 14.148C17.48 14.148 18.432 15.3156 18.816 15.7999C18.528 15.7999 17.824 15.1339 17.736 15.0215H17.744ZM18.872 18.5415C18.672 20.081 16.968 20.6604 16.856 21.7329C16.648 23.6529 15.848 24.0766 15.56 24.1458C16.28 23.108 16.144 21.9664 16.12 21.508C16.104 21.1448 16.096 20.8334 16.224 20.6345C16.552 20.0983 17.864 18.9826 18.064 17.3999C17.696 18.5934 15.456 19.2853 15.168 20.7988C14.904 18.8529 18.08 18.8702 18.064 16.215C18.08 16.2237 19.08 16.9502 18.88 18.5415H18.872ZM18.056 22.3815C18 22.4075 17.688 21.9491 17.688 21.8799C17.688 21.1102 18.376 20.9891 18.944 20.8507C20 20.5826 20.072 19.9599 20.304 19.6572C20.264 19.9858 19.976 20.7815 19 21.1707C17.616 21.7156 18.048 22.3815 18.048 22.3815H18.056ZM18.92 14.2258C18.72 14.0442 18.64 13.9404 18.584 13.7502C18.576 13.7156 18.568 13.6896 18.56 13.655C18.544 13.5685 18.52 13.4561 18.496 13.335C18.488 13.2745 18.472 13.1966 18.456 13.1188C18.456 13.1188 18.432 13.1102 18.416 13.1275C18.2 13.361 18.168 13.7329 18.168 13.6896C18.016 13.3264 18.28 12.4442 18.36 12.4356C18.376 12.4356 18.464 13.015 18.472 13.0237C18.472 13.041 19.976 14.9437 20.048 15.0042C19.752 14.7534 19.216 14.4939 18.928 14.2258H18.92ZM19.752 19.2939C19.784 19.095 20.272 18.0485 19.016 17.642C20.128 17.9275 20.04 18.455 20.04 18.922C20.04 18.9999 19.76 19.3026 19.744 19.2939H19.752ZM15.608 18.3599C15.72 18.2561 16.056 17.6161 15.52 16.6734C15.432 16.7166 15.104 16.9761 14.744 16.9761C14.36 16.9761 13.992 16.6561 13.976 16.4139C14.488 17.0453 15.456 16.6993 15.64 15.7999C15.656 15.8085 17.192 17.4604 15.608 18.3599ZM24.496 19.8734C24.448 19.8648 24.408 19.8475 24.36 19.8302C24.408 19.8475 24.448 19.8561 24.496 19.8734ZM24.496 19.8734C24.448 19.8648 24.408 19.8475 24.36 19.8302C24.408 19.8475 24.448 19.8561 24.496 19.8734ZM21.56 18.308C20.688 17.6161 20.2 16.8377 19.288 16.7945C19.672 16.3102 19.576 15.7653 19.56 15.402C19.792 15.5318 22.344 19.1815 24.36 19.8302C23.048 19.4323 22.232 18.8356 21.56 18.2993V18.308ZM26.184 18.9393C26.216 18.2907 26.792 18.4983 26.792 17.8669C26.856 17.642 27.168 17.4518 27.456 17.6853C27.464 17.6939 27.456 17.7026 27.448 17.7026C27.024 17.6939 26.928 17.8929 26.936 18.0312C26.96 18.6712 26.224 18.8269 26.184 18.9307V18.9393ZM14.456 9.53826C15.464 8.77718 15.128 8.38799 15.672 7.80853C15.92 7.86043 16.216 7.84313 16.536 7.83448C16.488 7.90367 15.872 7.65286 15.36 8.75989C15.096 9.33934 14.352 9.6161 14.456 9.53826ZM18.176 6.24313C17.4 6.39016 17.296 6.53718 17.192 6.61502C17.168 6.63232 17.16 7.31556 17.056 7.41934C17 7.31556 16.744 6.87448 16.616 6.82259C16.704 6.70151 17.176 6.28637 18.176 6.24313ZM20.2 10.7231C19.816 11.2334 18.648 10.4291 18.368 11.4064C18.36 11.4237 17.688 10.3945 18.224 9.79772C18.232 9.78907 18.392 10.455 18.392 10.455C18.432 10.5761 19.84 10.7318 19.984 10.6972C20.04 10.6799 20.296 10.3339 20.328 10.308C20.368 10.2907 20.32 10.5588 20.2 10.7145V10.7231ZM13.672 9.21826C14.128 10.0745 14.72 9.78907 15.136 9.78043C15.136 9.79772 14.752 9.92745 14.672 10.0226C14.376 10.0572 13.672 10.2042 13.664 9.21826H13.672ZM21.472 10.9739C21.496 11.6918 20.76 12.1069 20.28 12.081C19.984 12.0637 19.68 12.0983 19.48 12.2453C19.424 11.1037 20.752 12.4096 21.48 10.9826L21.472 10.9739ZM22.032 12.2885C22.496 12.1329 23.184 12.5134 23.184 12.5999C22.496 12.2885 21.616 13.361 20 12.8939C19.848 12.8507 19.76 12.7469 19.576 12.7642C20.064 12.4183 19.8 13.015 22.032 12.2885ZM20.696 8.9761C20.656 8.51772 19.728 8.6388 19.192 8.07664C19.096 7.98151 18.744 8.36205 18.728 8.77718C18.576 8.50043 18.552 8.24961 18.544 7.89502C18.544 7.86907 18.32 7.60097 17.968 7.50583C18.344 7.45394 18.416 7.64421 19.08 7.88637C19.12 7.90367 19.592 7.6961 19.592 7.72205C19.592 7.79124 20.136 8.45718 20.208 8.48313C20.864 8.69934 20.88 8.18907 20.904 8.21502C20.928 8.25826 20.832 9.01934 20.696 8.9761ZM20.84 7.41934C21.12 7.67016 21.264 7.3934 21.264 7.41934C21.216 7.80853 20.872 8.0334 20.856 8.02475C20.552 7.95556 20.424 7.31556 20.456 7.32421C20.656 7.40205 20.816 7.3934 20.848 7.41934H20.84ZM16.864 8.10259C16.92 8.11124 17.016 8.64745 16.568 9.0107C16.584 8.9588 16.624 8.66475 16.632 8.60421C16.648 8.46583 16.096 8.95016 15.904 9.07124C16.192 7.92097 16.848 8.10259 16.864 8.10259ZM17.36 9.0107C17.288 9.73718 16.976 10.0226 16.344 10.3858C16.344 10.3858 15.592 10.8356 15.528 10.8442C15.512 9.69394 17.232 9.52961 17.36 9.0107ZM23.216 14.2518C24.04 15.0042 23.384 15.9556 24.176 16.6215C23 16.2323 23.392 15.0907 22.832 14.5631C22.28 14.0442 21.464 14.2691 21.464 14.2691C21.464 14.2691 22.384 13.4993 23.216 14.2518ZM24.4 14.1048C24.584 14.442 24.8 15.3069 25.808 15.1599C25.672 15.2118 24.848 16.0161 24.112 14.3383C23.688 13.3783 22.472 13.2918 22.192 13.2658C23.6 12.9458 24.056 13.482 24.408 14.1048H24.4ZM27.96 20.2799C27.96 20.2885 27.944 20.2885 27.944 20.2799C27.704 19.6226 27.368 20.1069 27.208 20.0204C26.936 19.8648 26.24 19.8561 26.096 20.0031C26.136 19.5793 26.904 19.415 27.504 19.6399C27.624 19.6485 28.024 19.8388 27.96 20.2799ZM21.44 14.295C21.44 14.3123 22.856 16.5523 22.92 16.7166C22.248 16.1199 22.096 16.0766 21.688 15.6702C21.168 15.1599 20.952 14.3556 20.264 13.6031C20.288 13.5945 21.448 14.2604 21.448 14.295H21.44ZM26.848 21.3956C26.856 21.5599 26.976 21.6377 26.808 21.9145C26.8 21.9231 26.792 21.9145 26.792 21.9058C26.824 21.7242 26.72 21.6464 26.616 21.4907C26.112 21.4388 25.816 21.2745 25.752 20.7556C24.648 21.5599 23.936 20.401 23.616 20.2712C23.584 20.2366 24.92 20.8161 25.856 20.2366C26.104 20.9891 26.728 20.6518 26.848 21.4042V21.3956ZM26.104 6.83124C26.104 6.83124 26.104 6.83124 26.112 6.83124H26.104ZM26.112 6.83124C26.112 6.83124 26.112 6.83124 26.104 6.83124C26.104 6.83124 26.104 6.83124 26.112 6.83124ZM19.88 6.0788C19.872 6.07016 19.664 6.28637 19.632 6.4161C19.608 6.39016 18.096 5.59448 16.8 6.40745C16.8 6.4161 16.776 6.25178 16.544 6.07016C16.544 6.07016 16.696 5.98367 16.984 6.0961C16.992 6.10475 18.112 5.55124 19.448 6.1134C19.448 6.12205 19.672 5.99232 19.88 6.08745V6.0788ZM26.096 6.83124C26.096 6.83124 26.096 6.83124 26.104 6.83124H26.096ZM26.104 6.83124C26.104 6.83124 26.104 6.83124 26.096 6.83124C26.096 6.83124 26.096 6.83124 26.104 6.83124ZM19.92 9.45178C19.752 9.33934 19.584 9.21826 19.392 9.21826C19.04 9.20961 19.008 9.50367 19.008 9.50367C19.848 9.02799 19.832 10.2734 20.824 9.46907C20.848 9.44313 20.424 9.78043 19.928 9.45178H19.92ZM19.088 7.4107C19.096 7.4107 19.096 7.4107 19.104 7.4107C19.112 7.4107 19.112 7.4107 19.12 7.4107C19.208 7.38475 19.264 7.34151 19.36 7.27232C19.6 7.08205 19.424 7.04745 19.104 6.92637C18.896 6.87448 18.112 6.80529 18.104 6.87448V6.88313H18.096C18.024 6.90043 17.544 6.81394 17.392 6.81394C17.664 6.70151 19.096 6.21718 19.704 6.94367C19.712 6.95232 19.592 7.54043 19.096 7.42799L19.088 7.4107Z" fill="#857040"/>
</g>
<rect x="1" y="1" width="36" height="36" rx="18" stroke="white" stroke-width="2"/>
<defs>
<clipPath id="clip0_246_1201">
<rect width="20" height="32" fill="white" transform="translate(9 3)"/>
</clipPath>
</defs>
</svg>
